<!--?xml version="1.0" encoding="utf-8"?-->
<!-- Generator: Adobe Illustrator 22.1.0, SVG Export Plug-In . SVG Version: 6.00 Build 0)  -->
<svg version="1.1" id="_x34_" xmlns="http://www.w3.org/2000/svg" xmlns:xlink="http://www.w3.org/1999/xlink" x="0px" y="0px" viewBox="0 0 800 618.6" style="width: 187px;" xml:space="preserve">
<style type="text/css">
	.st0{fill:#FFFFFF;}
</style>
<g>
	<path class="st0" d="M683.9,30.2H116.1C73.6,30.2,39,64.7,39,107.3v303.9c0,42.6,34.6,77.1,67.9,77.1h245.6
		c29.1,0,31.7,16.3,35.4,26.1c22.4,58.7,55.1,72.2,103.6,74c3.1,0.1,5.5-1.5,0.6-5.2c-9.2-6.9-22.5-21.1-22.5-45
		c0-36.8,25.2-49.9,84.6-49.9h120.4c51.9,0,86.4-34.6,86.4-77.1V107.3C761,64.7,726.4,30.2,683.9,30.2z" style="fill: rgb(255, 208, 26);"></path>
</g>
<g font-family="noto" id="svgTXT" font-size="146"><text x="47%" y="50.17%" fill="FFFFFF" text-anchor="middle" font-weight="bolder" style="fill: rgb(255, 255, 255);">Slat</text></g></svg>
